# xmcd
#
# Track frame offsets:
#	150
#	22069
#	39478
#	54464
#	81403
#	114427
#	150076
#	167395
#	212623
#
# Disc length: 3161 seconds
#
# Revision: 0
# Processed by: cddbd v1.5.2PL0 Copyright (c) Steve Scherf et al.
# Submitted via: audiograbber 1.83.01
#
DISCID=640c5709
DTITLE=Beth Hart and Joe Bonamassa - Live In Amsterdam [CD 2)
DYEAR=2014
DGENRE=Blues
TTITLE0=Well, Well
TTITLE1=If I Tell You I Love You
TTITLE2=See Saw
TTITLE3=Strange Fruit
TTITLE4=Miss Lady
TTITLE5=I Love You More Than You'll Ever Know
TTITLE6=Nutbush City Limits
TTITLE7=I'd Rather Go Blind
TTITLE8=Antwerp Jam
EXTD=
EXTT0=
EXTT1=
EXTT2=
EXTT3=
EXTT4=
EXTT5=
EXTT6=
EXTT7=
EXTT8=
PLAYORDER=
